<svg width="20" height="20" viewBox="0 0 20 20" fill="none" stroke="currentColor" xmlns="http://www.w3.org/2000/svg">
  <path d="M6.03366 5.33342C6.03366 3.14168 7.80859 1.36675 10.0003 1.36675C12.1921 1.36675 13.967 3.14168 13.967 5.33342C13.967 7.52515 12.1921 9.30008 10.0003 9.30008C7.80859 9.30008 6.03366 7.52515 6.03366 5.33342ZM1.36699 15.8334C1.36699 15.3147 1.62129 14.8085 2.16204 14.3094C2.70754 13.806 3.49659 13.3584 4.42584 12.9861C6.28548 12.2412 8.53033 11.8667 10.0003 11.8667C11.4703 11.8667 13.7152 12.2412 15.5748 12.9861C16.5041 13.3584 17.2931 13.806 17.8386 14.3094C18.3794 14.8085 18.6337 15.3147 18.6337 15.8334V18.6334H1.36699V15.8334Z" strokeWidth="1.4"/>
</svg>